<mxfile host="app.diagrams.net" modified="2021-01-09T03:51:27.822Z" agent="5.0 (Windows NT 10.0; Win64; x64) AppleWebKit/537.36 (KHTML, like Gecko) Chrome/87.0.4280.141 Safari/537.36" etag="SCVBszelOKuf_GyOHRbB" version="14.1.8" type="github">
  <diagram id="zx_X4ZVzVVBX4pMpqnku" name="第 1 页">
    <mxGraphModel dx="421" dy="225" grid="1" gridSize="10" guides="1" tooltips="1" connect="1" arrows="1" fold="1" page="1" pageScale="1" pageWidth="827" pageHeight="1169" math="0" shadow="0">
      <root>
        <mxCell id="0" />
        <mxCell id="1" parent="0" />
        <mxCell id="7RKvXG4fRe2-LsM8Cm14-3" style="rounded=0;orthogonalLoop=1;jettySize=auto;html=1;exitX=0.5;exitY=1;exitDx=0;exitDy=0;entryX=0.5;entryY=0;entryDx=0;entryDy=0;fillColor=#1ba1e2;strokeColor=#006EAF;" edge="1" parent="1" source="7RKvXG4fRe2-LsM8Cm14-1" target="7RKvXG4fRe2-LsM8Cm14-2">
          <mxGeometry relative="1" as="geometry" />
        </mxCell>
        <mxCell id="7RKvXG4fRe2-LsM8Cm14-1" value="Client" style="rounded=0;whiteSpace=wrap;html=1;fillColor=#d5e8d4;strokeColor=#82b366;" vertex="1" parent="1">
          <mxGeometry x="120" y="180" width="60" height="30" as="geometry" />
        </mxCell>
        <mxCell id="7RKvXG4fRe2-LsM8Cm14-25" style="edgeStyle=none;rounded=0;orthogonalLoop=1;jettySize=auto;html=1;exitX=1;exitY=0.5;exitDx=0;exitDy=0;entryX=0;entryY=0.5;entryDx=0;entryDy=0;fillColor=#e51400;strokeColor=#B20000;" edge="1" parent="1" source="7RKvXG4fRe2-LsM8Cm14-2" target="7RKvXG4fRe2-LsM8Cm14-14">
          <mxGeometry relative="1" as="geometry" />
        </mxCell>
        <mxCell id="7RKvXG4fRe2-LsM8Cm14-26" style="edgeStyle=none;rounded=0;orthogonalLoop=1;jettySize=auto;html=1;exitX=1;exitY=0.5;exitDx=0;exitDy=0;entryX=0;entryY=0.5;entryDx=0;entryDy=0;fillColor=#e51400;strokeColor=#B20000;" edge="1" parent="1" source="7RKvXG4fRe2-LsM8Cm14-2" target="7RKvXG4fRe2-LsM8Cm14-18">
          <mxGeometry relative="1" as="geometry" />
        </mxCell>
        <mxCell id="7RKvXG4fRe2-LsM8Cm14-27" style="edgeStyle=none;rounded=0;orthogonalLoop=1;jettySize=auto;html=1;exitX=1;exitY=0.5;exitDx=0;exitDy=0;entryX=0;entryY=0.5;entryDx=0;entryDy=0;fillColor=#e51400;strokeColor=#B20000;" edge="1" parent="1" source="7RKvXG4fRe2-LsM8Cm14-2" target="7RKvXG4fRe2-LsM8Cm14-17">
          <mxGeometry relative="1" as="geometry" />
        </mxCell>
        <mxCell id="7RKvXG4fRe2-LsM8Cm14-29" style="edgeStyle=none;rounded=0;orthogonalLoop=1;jettySize=auto;html=1;exitX=1;exitY=0.5;exitDx=0;exitDy=0;fillColor=#e51400;strokeColor=#B20000;" edge="1" parent="1" source="7RKvXG4fRe2-LsM8Cm14-2" target="7RKvXG4fRe2-LsM8Cm14-16">
          <mxGeometry relative="1" as="geometry" />
        </mxCell>
        <mxCell id="7RKvXG4fRe2-LsM8Cm14-2" value="Master" style="rounded=0;whiteSpace=wrap;html=1;fillColor=#ffe6cc;strokeColor=#d79b00;" vertex="1" parent="1">
          <mxGeometry x="120" y="270" width="60" height="30" as="geometry" />
        </mxCell>
        <mxCell id="7RKvXG4fRe2-LsM8Cm14-8" value="Tomcat1" style="rounded=0;whiteSpace=wrap;html=1;fillColor=#e1d5e7;strokeColor=#9673a6;" vertex="1" parent="1">
          <mxGeometry x="430" y="160" width="50" height="20" as="geometry" />
        </mxCell>
        <mxCell id="7RKvXG4fRe2-LsM8Cm14-9" value="Tomcat2" style="rounded=0;whiteSpace=wrap;html=1;fillColor=#e1d5e7;strokeColor=#9673a6;" vertex="1" parent="1">
          <mxGeometry x="430" y="200" width="50" height="20" as="geometry" />
        </mxCell>
        <mxCell id="7RKvXG4fRe2-LsM8Cm14-20" style="edgeStyle=none;rounded=0;orthogonalLoop=1;jettySize=auto;html=1;exitX=0;exitY=0.5;exitDx=0;exitDy=0;entryX=1;entryY=0;entryDx=0;entryDy=0;startArrow=none;startFill=0;" edge="1" parent="1" source="7RKvXG4fRe2-LsM8Cm14-14" target="7RKvXG4fRe2-LsM8Cm14-1">
          <mxGeometry relative="1" as="geometry" />
        </mxCell>
        <mxCell id="7RKvXG4fRe2-LsM8Cm14-34" style="edgeStyle=none;rounded=0;orthogonalLoop=1;jettySize=auto;html=1;exitX=1;exitY=0.5;exitDx=0;exitDy=0;entryX=0;entryY=0.5;entryDx=0;entryDy=0;startArrow=none;startFill=0;" edge="1" parent="1" source="7RKvXG4fRe2-LsM8Cm14-14" target="7RKvXG4fRe2-LsM8Cm14-8">
          <mxGeometry relative="1" as="geometry" />
        </mxCell>
        <mxCell id="7RKvXG4fRe2-LsM8Cm14-35" style="edgeStyle=none;rounded=0;orthogonalLoop=1;jettySize=auto;html=1;exitX=1;exitY=0.5;exitDx=0;exitDy=0;entryX=0;entryY=0.5;entryDx=0;entryDy=0;startArrow=none;startFill=0;" edge="1" parent="1" source="7RKvXG4fRe2-LsM8Cm14-14" target="7RKvXG4fRe2-LsM8Cm14-9">
          <mxGeometry relative="1" as="geometry" />
        </mxCell>
        <mxCell id="7RKvXG4fRe2-LsM8Cm14-14" value="Worker" style="rounded=0;whiteSpace=wrap;html=1;fillColor=#dae8fc;strokeColor=#6c8ebf;" vertex="1" parent="1">
          <mxGeometry x="310" y="150" width="50" height="20" as="geometry" />
        </mxCell>
        <mxCell id="7RKvXG4fRe2-LsM8Cm14-23" style="edgeStyle=none;rounded=0;orthogonalLoop=1;jettySize=auto;html=1;exitX=0;exitY=0.5;exitDx=0;exitDy=0;entryX=1;entryY=1;entryDx=0;entryDy=0;fillColor=#60a917;strokeColor=#2D7600;" edge="1" parent="1" source="7RKvXG4fRe2-LsM8Cm14-16" target="7RKvXG4fRe2-LsM8Cm14-1">
          <mxGeometry relative="1" as="geometry" />
        </mxCell>
        <mxCell id="7RKvXG4fRe2-LsM8Cm14-16" value="worker" style="rounded=0;whiteSpace=wrap;html=1;fillColor=#dae8fc;strokeColor=#6c8ebf;" vertex="1" parent="1">
          <mxGeometry x="310" y="270" width="50" height="20" as="geometry" />
        </mxCell>
        <mxCell id="7RKvXG4fRe2-LsM8Cm14-22" style="edgeStyle=none;rounded=0;orthogonalLoop=1;jettySize=auto;html=1;exitX=0;exitY=0.5;exitDx=0;exitDy=0;entryX=1;entryY=0.75;entryDx=0;entryDy=0;fillColor=#60a917;strokeColor=#2D7600;" edge="1" parent="1" source="7RKvXG4fRe2-LsM8Cm14-17" target="7RKvXG4fRe2-LsM8Cm14-1">
          <mxGeometry relative="1" as="geometry" />
        </mxCell>
        <mxCell id="7RKvXG4fRe2-LsM8Cm14-17" value="worker" style="rounded=0;whiteSpace=wrap;html=1;fillColor=#dae8fc;strokeColor=#6c8ebf;" vertex="1" parent="1">
          <mxGeometry x="310" y="230" width="50" height="20" as="geometry" />
        </mxCell>
        <mxCell id="7RKvXG4fRe2-LsM8Cm14-21" style="edgeStyle=none;rounded=0;orthogonalLoop=1;jettySize=auto;html=1;exitX=0;exitY=0.5;exitDx=0;exitDy=0;entryX=1.03;entryY=0.394;entryDx=0;entryDy=0;entryPerimeter=0;" edge="1" parent="1" source="7RKvXG4fRe2-LsM8Cm14-18" target="7RKvXG4fRe2-LsM8Cm14-1">
          <mxGeometry relative="1" as="geometry" />
        </mxCell>
        <mxCell id="7RKvXG4fRe2-LsM8Cm14-18" value="worker" style="rounded=0;whiteSpace=wrap;html=1;fillColor=#dae8fc;strokeColor=#6c8ebf;" vertex="1" parent="1">
          <mxGeometry x="310" y="190" width="50" height="20" as="geometry" />
        </mxCell>
        <mxCell id="7RKvXG4fRe2-LsM8Cm14-32" value="&lt;font color=&quot;#ff3333&quot;&gt;争抢机制&lt;/font&gt;" style="text;html=1;strokeColor=none;fillColor=none;align=center;verticalAlign=middle;whiteSpace=wrap;rounded=0;rotation=-10;" vertex="1" parent="1">
          <mxGeometry x="200" y="150" width="50" height="20" as="geometry" />
        </mxCell>
        <mxCell id="7RKvXG4fRe2-LsM8Cm14-36" style="edgeStyle=none;rounded=0;orthogonalLoop=1;jettySize=auto;html=1;exitX=0;exitY=0.5;exitDx=0;exitDy=0;entryX=1;entryY=0;entryDx=0;entryDy=0;startArrow=none;startFill=0;fillColor=#f0a30a;strokeColor=#BD7000;" edge="1" parent="1">
          <mxGeometry relative="1" as="geometry">
            <mxPoint x="310" y="160" as="sourcePoint" />
            <mxPoint x="180" y="180" as="targetPoint" />
          </mxGeometry>
        </mxCell>
        <mxCell id="7RKvXG4fRe2-LsM8Cm14-37" style="edgeStyle=none;rounded=0;orthogonalLoop=1;jettySize=auto;html=1;exitX=0;exitY=0.5;exitDx=0;exitDy=0;entryX=1.03;entryY=0.394;entryDx=0;entryDy=0;entryPerimeter=0;fillColor=#f0a30a;strokeColor=#BD7000;" edge="1" parent="1">
          <mxGeometry relative="1" as="geometry">
            <mxPoint x="310" y="200" as="sourcePoint" />
            <mxPoint x="181.79999999999995" y="191.82" as="targetPoint" />
          </mxGeometry>
        </mxCell>
        <mxCell id="7RKvXG4fRe2-LsM8Cm14-38" style="edgeStyle=none;rounded=0;orthogonalLoop=1;jettySize=auto;html=1;exitX=0;exitY=0.5;exitDx=0;exitDy=0;entryX=1;entryY=0;entryDx=0;entryDy=0;startArrow=none;startFill=0;fillColor=#008a00;strokeColor=#005700;" edge="1" parent="1">
          <mxGeometry relative="1" as="geometry">
            <mxPoint x="310" y="160" as="sourcePoint" />
            <mxPoint x="180" y="180" as="targetPoint" />
          </mxGeometry>
        </mxCell>
        <mxCell id="7RKvXG4fRe2-LsM8Cm14-39" style="edgeStyle=none;rounded=0;orthogonalLoop=1;jettySize=auto;html=1;exitX=0;exitY=0.5;exitDx=0;exitDy=0;entryX=1.03;entryY=0.394;entryDx=0;entryDy=0;entryPerimeter=0;fillColor=#008a00;strokeColor=#005700;" edge="1" parent="1">
          <mxGeometry relative="1" as="geometry">
            <mxPoint x="310" y="200" as="sourcePoint" />
            <mxPoint x="181.79999999999995" y="191.82" as="targetPoint" />
          </mxGeometry>
        </mxCell>
        <mxCell id="7RKvXG4fRe2-LsM8Cm14-40" style="edgeStyle=none;rounded=0;orthogonalLoop=1;jettySize=auto;html=1;exitX=0;exitY=0.5;exitDx=0;exitDy=0;entryX=1;entryY=0;entryDx=0;entryDy=0;startArrow=none;startFill=0;fillColor=#60a917;strokeColor=#2D7600;" edge="1" parent="1">
          <mxGeometry relative="1" as="geometry">
            <mxPoint x="310" y="160" as="sourcePoint" />
            <mxPoint x="180" y="180" as="targetPoint" />
          </mxGeometry>
        </mxCell>
      </root>
    </mxGraphModel>
  </diagram>
</mxfile>
